<?xml version="1.0" encoding="UTF-8"?>
<svg xmlns="http://www.w3.org/2000/svg" style="display:none">

  <!-- volume -->
  <symbol id="icon-about" viewBox="0 0 24 24">
    <path
      fill="currentColor"
      d="M18 13v-2h4v2zm1.2 7L16 17.6l1.2-1.6l3.2 2.4zm-2-12L16 6.4L19.2 4l1.2 1.6zM5 19v-4H4q-.825 0-1.412-.587T2 13v-2q0-.825.588-1.412T4 9h4l5-3v12l-5-3H7v4zm9-3.65v-6.7q.675.6 1.088 1.463T15.5 12t-.413 1.888T14 15.35"
    />
  </symbol>

  <!-- camera -->
  <symbol id="icon-howto" viewBox="0 0 24 24">
    <circle cx="12" cy="12" r="3.2" fill="currentColor" />
    <path
      fill="currentColor"
      d="M9 2L7.17 4H4c-1.1 0-2 .9-2 2v12c0 1.1.9 2 2 2h16c1.1 0 2-.9 2-2V6c0-1.1-.9-2-2-2h-3.17L15 2zm3 15c-2.76 0-5-2.24-5-5s2.24-5 5-5s5 2.24 5 5s-2.24 5-5 5"
    />
  </symbol>


<!-- gift -->
<symbol id="icon-prizes" viewBox="0 0 256 256">
  <path
    fill="currentColor"
    d="M216 68h-25.94A33.8 33.8 0 0 0 196 49.69A36.62 36.62 0 0 0 158.31 12A33.44 33.44 0 0 0 134 23.25a54.7 54.7 0 0 0-6 8.3a54.7 54.7 0 0 0-6-8.3A33.44 33.44 0 0 0 97.69 12A36.62 36.62 0 0 0 60 49.69A33.8 33.8 0 0 0 65.94 68H40a20 20 0 0 0-20 20v32a20 20 0 0 0 16 19.6V200a20 20 0 0 0 20 20h144a20 20 0 0 0 20-20v-60.4a20 20 0 0 0 16-19.6V88a20 20 0 0 0-20-20m-4 48h-72V92h72Zm-60-76.83a9.6 9.6 0 0 1 7-3.17h.35A12.62 12.62 0 0 1 172 49a9.6 9.6 0 0 1-3.17 7c-6.9 6.12-18.25 9.26-27.63 10.76c1.5-9.34 4.64-20.69 10.8-27.59m-64.3.53a12.8 12.8 0 0 1 8.91-3.7H97a9.6 9.6 0 0 1 7 3.17c6.12 6.9 9.26 18.24 10.75 27.61C105.45 65.27 94 62.13 87.17 56A9.6 9.6 0 0 1 84 49a12.72 12.72 0 0 1 3.7-9.3M44 92h72v24H44Zm16 48h56v56H60Zm80 56v-56h56v56Z"
  />
</symbol>

<!-- faq -->
<symbol id="icon-faq" viewBox="0 0 48 48">
  <path
    fill="currentColor"
    fill-rule="evenodd"
    clip-rule="evenodd"
    d="M18.5 6C10.492 6 4 12.492 4 20.5C4 38.5 28 42 28 42v-7h1.5C37.508 35 44 28.508 44 20.5S37.508 6 29.5 6zM24 23.5a2.5 2.5 0 1 0 0-5a2.5 2.5 0 0 0 0 5M34.5 21a2.5 2.5 0 1 1-5 0a2.5 2.5 0 0 1 5 0M16 23.5a2.5 2.5 0 1 0 0-5a2.5 2.5 0 0 0 0 5"
  />
</symbol>

<!-- entry -->
<symbol id="icon-entry" viewBox="0 0 24 24">
  <path
    fill="currentColor"
    d="M5 14q-.425 0-.712-.288T4 13t.288-.712T5 12h5q.425 0 .713.288T11 13t-.288.713T10 14zm0-4q-.425 0-.712-.288T4 9t.288-.712T5 8h9q.425 0 .713.288T15 9t-.288.713T14 10zm0-4q-.425 0-.712-.288T4 5t.288-.712T5 4h9q.425 0 .713.288T15 5t-.288.713T14 6zm8 13v-1.65q0-.2.075-.387t.225-.338l5.225-5.2q.225-.225.5-.325t.55-.1q.3 0 .575.113t.5.337l.925.925q.2.225.313.5t.112.55t-.1.563t-.325.512l-5.2 5.2q-.15.15-.337.225T15.65 20H14q-.425 0-.712-.287T13 19m6.575-4.6l.925-.975l-.925-.925l-.95.95zM14.5 18.5h.95l3.025-3.05l-.45-.475l-.475-.45l-3.05 3.025zm0 0v-.95l3.05-3.025l.925.925l-3.025 3.05z"
  />
</symbol>

<!-- contact -->
<symbol id="icon-contact" viewBox="0 0 24 24">
  <path
    fill="currentColor"
    d="M20 4H4c-1.1 0-2 .9-2 2v12c0 1.1.9 2 2 2h16c1.1 0 2-.9 2-2V6c0-1.1-.9-2-2-2m-.4 4.25l-6.54 4.09c-.65.41-1.47.41-2.12 0L4.4 8.25a.85.85 0 1 1 .9-1.44L12 11l6.7-4.19a.85.85 0 1 1 .9 1.44"
  />
</symbol>

<!-- play -->
<symbol id="icon-play" viewBox="0 0 16 16">
  <path
    fill="currentColor"
    d="M8.051 1.999h.089c.822.003 4.987.033 6.11.335a2.01 2.01 0 0 1 1.415 1.42c.101.38.172.883.22 1.402l.01.104l.022.26l.008.104c.065.914.073 1.77.074 1.957v.075c-.001.194-.01 1.108-.082 2.06l-.008.105l-.009.104c-.05.572-.124 1.14-.235 1.558a2.01 2.01 0 0 1-1.415 1.42c-1.16.312-5.569.334-6.18.335h-.142c-.309 0-1.587-.006-2.927-.052l-.17-.006l-.087-.004l-.171-.007l-.171-.007c-1.11-.049-2.167-.128-2.654-.26a2.01 2.01 0 0 1-1.415-1.419c-.111-.417-.185-.986-.235-1.558L.09 9.82l-.008-.104A31 31 0 0 1 0 7.68v-.123c.002-.215.01-.958.064-1.778l.007-.103l.003-.052l.008-.104l.022-.26l.01-.104c.048-.519.119-1.023.22-1.402a2.01 2.01 0 0 1 1.415-1.42c.487-.13 1.544-.21 2.654-.26l.17-.007l.172-.006l.086-.003l.171-.007A100 100 0 0 1 7.858 2zM6.4 5.209v4.818l4.157-2.408z"
  />
</symbol>

<!-- instagram -->
<symbol id="icon-instagram" viewBox="0 0 24 24">
  <path
    fill="currentColor"
    d="M7.8 2h8.4C19.4 2 22 4.6 22 7.8v8.4a5.8 5.8 0 0 1-5.8 5.8H7.8C4.6 22 2 19.4 2 16.2V7.8A5.8 5.8 0 0 1 7.8 2m-.2 2A3.6 3.6 0 0 0 4 7.6v8.8C4 18.39 5.61 20 7.6 20h8.8a3.6 3.6 0 0 0 3.6-3.6V7.6C20 5.61 18.39 4 16.4 4zm9.65 1.5a1.25 1.25 0 0 1 1.25 1.25A1.25 1.25 0 0 1 17.25 8A1.25 1.25 0 0 1 16 6.75a1.25 1.25 0 0 1 1.25-1.25M12 7a5 5 0 0 1 5 5a5 5 0 0 1-5 5a5 5 0 0 1-5-5a5 5 0 0 1 5-5m0 2a3 3 0 0 0-3 3a3 3 0 0 0 3 3a3 3 0 0 0 3-3a3 3 0 0 0-3-3"
  />
</symbol>


<!-- twitter -->
<symbol id="icon-twitter" viewBox="0 0 24 24">
  <path
    fill="currentColor"
    d="M22.46 6c-.77.35-1.6.58-2.46.69c.88-.53 1.56-1.37 1.88-2.38c-.83.5-1.75.85-2.72 1.05C18.37 4.5 17.26 4 16 4c-2.35 0-4.27 1.92-4.27 4.29c0 .34.04.67.11.98C8.28 9.09 5.11 7.38 3 4.79c-.37.63-.58 1.37-.58 2.15c0 1.49.75 2.81 1.91 3.56c-.71 0-1.37-.2-1.95-.5v.03c0 2.08 1.48 3.82 3.44 4.21a4.2 4.2 0 0 1-1.93.07a4.28 4.28 0 0 0 4 2.98a8.52 8.52 0 0 1-5.33 1.84q-.51 0-1.02-.06C3.44 20.29 5.7 21 8.12 21C16 21 20.33 14.46 20.33 8.79c0-.19 0-.37-.01-.56c.84-.6 1.56-1.36 2.14-2.23"
  />
</symbol>



</svg>
