<?xml version="1.0" encoding="UTF-8"?>
<svg xmlns="http://www.w3.org/2000/svg" style="display:none">

  <!-- volume -->
  <symbol id="icon-about" viewBox="0 0 24 24">
    <path
      fill="currentColor"
      d="M18 13v-2h4v2zm1.2 7L16 17.6l1.2-1.6l3.2 2.4zm-2-12L16 6.4L19.2 4l1.2 1.6zM5 19v-4H4q-.825 0-1.412-.587T2 13v-2q0-.825.588-1.412T4 9h4l5-3v12l-5-3H7v4zm9-3.65v-6.7q.675.6 1.088 1.463T15.5 12t-.413 1.888T14 15.35"
    />
  </symbol>

  <!-- camera -->
  <symbol id="icon-howto" viewBox="0 0 24 24">
    <circle cx="12" cy="12" r="3.2" fill="currentColor" />
    <path
      fill="currentColor"
      d="M9 2L7.17 4H4c-1.1 0-2 .9-2 2v12c0 1.1.9 2 2 2h16c1.1 0 2-.9 2-2V6c0-1.1-.9-2-2-2h-3.17L15 2zm3 15c-2.76 0-5-2.24-5-5s2.24-5 5-5s5 2.24 5 5s-2.24 5-5 5"
    />
  </symbol>


<!-- gift -->
<symbol id="icon-prizes" viewBox="0 0 256 256">
  <path
    fill="currentColor"
    d="M216 68h-25.94A33.8 33.8 0 0 0 196 49.69A36.62 36.62 0 0 0 158.31 12A33.44 33.44 0 0 0 134 23.25a54.7 54.7 0 0 0-6 8.3a54.7 54.7 0 0 0-6-8.3A33.44 33.44 0 0 0 97.69 12A36.62 36.62 0 0 0 60 49.69A33.8 33.8 0 0 0 65.94 68H40a20 20 0 0 0-20 20v32a20 20 0 0 0 16 19.6V200a20 20 0 0 0 20 20h144a20 20 0 0 0 20-20v-60.4a20 20 0 0 0 16-19.6V88a20 20 0 0 0-20-20m-4 48h-72V92h72Zm-60-76.83a9.6 9.6 0 0 1 7-3.17h.35A12.62 12.62 0 0 1 172 49a9.6 9.6 0 0 1-3.17 7c-6.9 6.12-18.25 9.26-27.63 10.76c1.5-9.34 4.64-20.69 10.8-27.59m-64.3.53a12.8 12.8 0 0 1 8.91-3.7H97a9.6 9.6 0 0 1 7 3.17c6.12 6.9 9.26 18.24 10.75 27.61C105.45 65.27 94 62.13 87.17 56A9.6 9.6 0 0 1 84 49a12.72 12.72 0 0 1 3.7-9.3M44 92h72v24H44Zm16 48h56v56H60Zm80 56v-56h56v56Z"
  />
</symbol>



</svg>
